<svg width="143" height="210" viewBox="0 0 143 210" fill="none" xmlns="http://www.w3.org/2000/svg">
<path d="M29.695 159C24.7 159 21.925 156.225 21.925 151.23V116.45H39.5V122.555H43.2V113.305H29.695C24.7 113.305 21.925 110.53 21.925 105.535V29.5H39.5V75.01H43.2V29.5H60.775V151.23C60.775 156.225 58 159 53.005 159H29.695ZM62.5744 159V29.5H89.0294V65.945H80.1494V75.01H89.0294V113.305H80.1494V122.555H89.0294V159H62.5744ZM100.189 159C94.2687 159 90.9387 155.67 90.9387 149.75V118.485H108.514V122.555H112.214V117.375L97.0437 110.16C91.8637 107.755 90.9387 102.02 90.9387 96.1V38.75C90.9387 32.83 94.2687 29.5 100.189 29.5H120.539C126.459 29.5 129.789 32.83 129.789 38.75V70.015H112.214V65.945H108.514V71.31L123.684 78.525C128.864 80.93 129.789 86.665 129.789 92.585V149.75C129.789 155.67 126.459 159 120.539 159H100.189Z" fill="black"/>
<path d="M2.53 203V177.347H1.255V167.3H8.65V177.347H7.375V203H2.53ZM9.68395 203V167.3H14.5289V179.846H15.5489V167.3H20.3939V203H15.5489V190.403H14.5289V203H9.68395ZM21.4 203V167.3H26.245V203H21.4ZM29.8389 203C28.2069 203 27.2889 202.082 27.2889 200.45V191.831H32.1339V192.953H33.1539V191.525L28.9719 189.536C27.5439 188.873 27.2889 187.292 27.2889 185.66V169.85C27.2889 168.218 28.2069 167.3 29.8389 167.3H35.4489C37.0809 167.3 37.9989 168.218 37.9989 169.85V178.469H33.1539V177.347H32.1339V178.826L36.3159 180.815C37.7439 181.478 37.9989 183.059 37.9989 184.691V200.45C37.9989 202.082 37.0809 203 35.4489 203H29.8389ZM42.055 203V167.3H46.9V203H42.055ZM50.4939 203C48.8619 203 47.9439 202.082 47.9439 200.45V191.831H52.7889V192.953H53.8089V191.525L49.6269 189.536C48.1989 188.873 47.9439 187.292 47.9439 185.66V169.85C47.9439 168.218 48.8619 167.3 50.4939 167.3H56.1039C57.7359 167.3 58.6539 168.218 58.6539 169.85V178.469H53.8089V177.347H52.7889V178.826L56.9709 180.815C58.3989 181.478 58.6539 183.059 58.6539 184.691V200.45C58.6539 202.082 57.7359 203 56.1039 203H50.4939ZM65.617 203C63.73 203 62.71 201.776 62.71 199.532V183.314C62.71 181.07 63.934 179.846 66.178 179.846H68.575V177.347H67.555V179.03H62.71V169.85C62.71 168.218 63.628 167.3 65.26 167.3H70.87C72.502 167.3 73.42 168.218 73.42 169.85V203H68.575V201.674C68.32 202.082 67.249 203 65.617 203ZM67.555 192.953H68.575V190.403H67.555V192.953ZM85.7481 203H80.9031L79.4241 195.809H79.2711V203H74.4261V167.3H79.2711L80.7501 174.593H80.9031V167.3H85.7481V203ZM86.7896 203V167.3H94.9496C96.5816 167.3 97.4996 168.218 97.4996 169.85V200.45C97.4996 202.082 96.5816 203 94.9496 203H86.7896ZM91.6346 192.953H92.6546V177.347H91.6346V192.953Z" fill="black"/>
<path d="M6.52406 160C1.51057 160 0 157.214 0 152.2V116.5H39.6462V122.5H43.3599V114.129C43.3599 114.129 11.5376 114.129 6.52406 114.129C1.51057 114.129 0 111.343 0 106.329C0 101.314 0.133975 29.5 0.133975 29.5H39.5L39.6462 75.6857H43.3599L43.226 29.5H61V152.2C61 157.214 58.2147 160 53.2012 160H6.52406Z" fill="black"/>
<path d="M100.104 203C98.8715 203 98.5 202.314 98.5 201.08V191.197L123.249 191.197V192.706H124.162V190.42C124.162 190.42 101.337 190.42 100.104 190.42C98.8715 190.42 98.5 189.734 98.5 188.5C98.5 187.266 98.5 167.293 98.5 167.293L123.249 167.293V182.246H124.162V167.293H128.5V201.08C128.5 202.314 127.815 203 126.582 203L100.104 203Z" fill="black"/>
<path d="M142 203V36C141.595 33.5 134.714 29 125 29" stroke="#34C759" stroke-width="2"/>
<path d="M140 203V36C139.643 33.5 133.571 29 125 29" stroke="#FFCC00" stroke-width="2"/>
<path d="M138 203V36C137.69 33.5 132.429 29 125 29" stroke="#FF2D55" stroke-width="2"/>
<path d="M136 203V36C135.738 33.5 131.286 29 125 29" stroke="#CB30E0" stroke-width="2"/>
<path d="M134 203V36C133.786 33.5 130.143 29 125 29" stroke="#00C8B3" stroke-width="2"/>
<path d="M132 203V36C131.833 33.5 129 29 125 29" stroke="#FF8D28" stroke-width="2"/>
</svg>
