<svg width="110" height="210" viewBox="0 0 110 210" fill="none" xmlns="http://www.w3.org/2000/svg">
<path d="M8.695 159C3.7 159 0.925 156.225 0.925 151.23V116.45H18.5V122.555H22.2V113.305H8.695C3.7 113.305 0.925 110.53 0.925 105.535V29.5H18.5V75.01H22.2V29.5H39.775V151.23C39.775 156.225 37 159 32.005 159H8.695ZM41.5744 159V29.5H68.0294V65.945H59.1494V75.01H68.0294V113.305H59.1494V122.555H68.0294V159H41.5744ZM79.1887 159C73.2687 159 69.9387 155.67 69.9387 149.75V118.485H87.5137V122.555H91.2137V117.375L76.0437 110.16C70.8637 107.755 69.9387 102.02 69.9387 96.1V38.75C69.9387 32.83 73.2687 29.5 79.1887 29.5H99.5387C105.459 29.5 108.789 32.83 108.789 38.75V70.015H91.2137V65.945H87.5137V71.31L102.684 78.525C107.864 80.93 108.789 86.665 108.789 92.585V149.75C108.789 155.67 105.459 159 99.5387 159H79.1887Z" fill="black"/>
<path d="M1.53 203V177.347H0.255V167.3H7.65V177.347H6.375V203H1.53ZM8.68395 203V167.3H13.5289V179.846H14.5489V167.3H19.3939V203H14.5489V190.403H13.5289V203H8.68395ZM20.4 203V167.3H25.245V203H20.4ZM28.8389 203C27.2069 203 26.2889 202.082 26.2889 200.45V191.831H31.1339V192.953H32.1539V191.525L27.9719 189.536C26.5439 188.873 26.2889 187.292 26.2889 185.66V169.85C26.2889 168.218 27.2069 167.3 28.8389 167.3H34.4489C36.0809 167.3 36.9989 168.218 36.9989 169.85V178.469H32.1539V177.347H31.1339V178.826L35.3159 180.815C36.7439 181.478 36.9989 183.059 36.9989 184.691V200.45C36.9989 202.082 36.0809 203 34.4489 203H28.8389ZM41.055 203V167.3H45.9V203H41.055ZM49.4939 203C47.8619 203 46.9439 202.082 46.9439 200.45V191.831H51.7889V192.953H52.8089V191.525L48.6269 189.536C47.1989 188.873 46.9439 187.292 46.9439 185.66V169.85C46.9439 168.218 47.8619 167.3 49.4939 167.3H55.1039C56.7359 167.3 57.6539 168.218 57.6539 169.85V178.469H52.8089V177.347H51.7889V178.826L55.9709 180.815C57.3989 181.478 57.6539 183.059 57.6539 184.691V200.45C57.6539 202.082 56.7359 203 55.1039 203H49.4939ZM64.617 203C62.73 203 61.71 201.776 61.71 199.532V183.314C61.71 181.07 62.934 179.846 65.178 179.846H67.575V177.347H66.555V179.03H61.71V169.85C61.71 168.218 62.628 167.3 64.26 167.3H69.87C71.502 167.3 72.42 168.218 72.42 169.85V203H67.575V201.674C67.32 202.082 66.249 203 64.617 203ZM66.555 192.953H67.575V190.403H66.555V192.953ZM84.7481 203H79.9031L78.4241 195.809H78.2711V203H73.4261V167.3H78.2711L79.7501 174.593H79.9031V167.3H84.7481V203ZM85.7896 203V167.3H93.9496C95.5816 167.3 96.4996 168.218 96.4996 169.85V200.45C96.4996 202.082 95.5816 203 93.9496 203H85.7896ZM90.6346 192.953H91.6546V177.347H90.6346V192.953ZM99.6476 203C98.2706 203 97.5056 202.235 97.5056 200.858V191.27H102.351V192.953H103.371V190.403H99.6476C98.2706 190.403 97.5056 189.638 97.5056 188.261V167.3H102.351V179.846H103.371V167.3H108.216V200.858C108.216 202.235 107.451 203 106.074 203H99.6476Z" fill="black"/>
</svg>
